<?xml version="1.0" encoding="UTF-8"?>
<svg xmlns="http://www.w3.org/2000/svg" baseProfile="tiny" version="1.2" xmlns:xlink="http://www.w3.org/1999/xlink" viewBox="0 0 256 256">
  <defs>
    <linearGradient id="_COLOR_64" x1="130.6" y1="184.1" x2="148.9" y2="184.1" gradientUnits="userSpaceOnUse">
      <stop offset="0" stop-color="#00ff89"/>
      <stop offset="1" stop-color="#00bfe9"/>
    </linearGradient>
    <linearGradient id="_COLOR_64-2" x1="154.3" x2="171" xlink:href="#_COLOR_64"/>
    <linearGradient id="_COLOR_64-3" x1="173.1" x2="195" xlink:href="#_COLOR_64"/>
    <linearGradient id="_COLOR_64-4" x1="196" x2="216.7" xlink:href="#_COLOR_64"/>
  </defs>
  <!-- Generator: Adobe Illustrator 28.7.1, SVG Export Plug-In . SVG Version: 1.2.0 Build 142)  -->
  <g>
    <g id="sugar-next">
      <g>
        <path d="M89.5,177.7v-11.3c-3.1,1.5-6,2.9-9.3,4.5-12.1-7-24.2-13.9-36.4-21v-44.6c12.1-7.1,24.1-14.1,36.7-21.5,2.4,1.5,5,3.2,8.5,5.4.3-4,.6-7.1.9-10.6,11.9-6.9,24-13.9,36.6-21.2,12.2,7,24.3,14,37,21.3v11.5c3.4-1.7,6-3,9.2-4.6,13.2,7.6,26.9,14.3,38.8,23v41.3c-12.4,7.3-25.1,14.6-38,22.2-2.7-1.3-5.7-2.8-9.6-4.7-.2,3.9-.4,7.1-.6,10.6-12.1,6.9-24.2,13.9-36.5,20.9-12.5-7.1-24.6-14-37.3-21.2Z" fill="#fe3398"/>
        <path d="M172.2,99.2c9.6,5.4,18.3,10.3,27.1,15.2v28.1c-8.1,4.9-16.9,10.3-25.7,15.7-3.1-1.5-6.1-3-9.7-4.7v-19.7c-5.8-3.6-11.1-6.8-16.3-9.9v-9c6.6-6.7,16.5-9.1,24.5-15.7Z" fill="#fefefe"/>
        <path d="M126.4,112.7c-2.3,1.2-4.7,2.4-7.6,3.9-2.6-3.8,0-7.9-1.6-11.3-4.9-2.9-9.9-6-15.2-9.2v-10.1c7.4-4.4,15.7-9.3,24.7-14.7,8.3,4.9,16.6,9.8,24.7,14.6v11.9c-5,3-10.1,6-16,9.5v9.6c-3.4-1.6-5.9-2.8-9-4.2Z" fill="#fefdfe"/>
      </g>
      <g>
        <path d="M141.6,196.9l-6.7-20.6c.1.7.2,1.7.4,2.8s.3,2.4.4,3.8c.1,1.4.2,2.8.2,4.3v9.7h-5.2v-25.6h7.6l6.5,20.5c-.2-1.2-.4-2.7-.6-4.5-.2-1.8-.3-3.9-.3-6.2v-9.8h5.2v25.6h-7.3Z" fill="url(#_COLOR_64)" stroke="#00d296" stroke-miterlimit="10" stroke-width=".5"/>
        <path d="M160.3,175.6v6.1h8.9v4.2h-8.9v6.5h10.7v4.3h-16.7v-25.6h16.7l-.6,4.3h-10.1Z" fill="url(#_COLOR_64-2)" stroke="#00d296" stroke-miterlimit="10" stroke-width=".5"/>
        <path d="M173.7,171.3h6.5l3.9,8.2,4-8.2h6.4l-6.8,11.7,7.4,13.8h-6.5l-4.5-9.8-4.4,9.8h-6.4l7.3-13.6-6.7-12Z" fill="url(#_COLOR_64-3)" stroke="#00d296" stroke-miterlimit="10" stroke-width=".5"/>
        <path d="M209.2,176v21h-6.1v-21h-7.2v-4.6h20.7l-.6,4.6h-6.8Z" fill="url(#_COLOR_64-4)" stroke="#00d296" stroke-miterlimit="10" stroke-width=".5"/>
      </g>
    </g>
  </g>
</svg>